<?xml version="1.0" standalone="no"?><!DOCTYPE svg PUBLIC "-//W3C//DTD SVG 1.1//EN" "http://www.w3.org/Graphics/SVG/1.1/DTD/svg11.dtd"><svg xmlns="http://www.w3.org/2000/svg" version="1.1" width="1571.591" height="753.872" xmlns:xlink="http://www.w3.org/1999/xlink" xlink="http://www.w3.org/1999/xlink" style="position:relative;overflow:hidden;" viewBox="60.564 2.231 1571.591 753.872"><defs/><g><g width="401.626" height="251.339" transform="scale(1,1) translate(1171.999,60.761)"><g transform="scale(1,1) translate(0,0)" fill="#FFFFFF" stroke="#000000" stroke-opacity="1" fill-opacity="1"><path d="M401.626,0 L401.626,251.339 L0,251.339 L0,0 L401.626,0 z" stroke-width="11.339" stroke-dasharray="none"/></g><g fill="#0000FF" stroke="#9999FF" stroke-opacity="1" transform="scale(1,1) translate(0,0)"><path fill="none" stroke-width="0" stroke-dasharray="none" d="M0,0"/></g><g width="67.70833587646484" height="15.625000953674316" transform="scale(1,1) translate(166.959,117.857)"><text width="67.70833587646484" height="15.625000953674316" transform="scale(1,1) translate(0,0)" xml:space="preserve"><tspan xml:space="preserve" text-rendering="optimizeSpeed" style="font-family: Arial, Helvetica Neue, Helvetica, sans-serif;" font-size="13.88888888888889" font-weight="normal" font-style="normal" text-decoration="none" fill="#000" opacity="1" x="0" text-anchor="start" y="12.5" textLength="67.70833587646484">3.05 x 4.96</tspan></text></g><g transform="scale(1,1) translate(0,0)" fill="black" opacity="0"><path d="M163.053,121.763 L163.053,129.576 L155.24,125.669 L163.053,121.763 z"/></g><g transform="scale(1,1) translate(0,0)" fill="black" opacity="0"><path d="M238.574,121.763 L238.574,129.576 L246.386,125.669 L238.574,121.763 z"/></g><g transform="scale(1,1) translate(0,0)" fill="black" opacity="0"><path d="M196.907,113.951 L204.719,113.951 L200.813,106.138 L196.907,113.951 z"/></g><g transform="scale(1,1) translate(0,0)" fill="black" opacity="0"><path d="M196.907,137.388 L204.719,137.388 L200.813,145.201 L196.907,137.388 z"/></g><g fill="#9999FF" stroke="#9999FF" stroke-opacity="1" opacity="0" transform="scale(1,1) translate(0,0)"><path fill="none" stroke-width="1" stroke-dasharray="none" d="M410.295,5.669 L440.108,5.669 L440.108,109.648 M440.108,141.69 L440.108,245.669 L410.295,245.669 M395.957,260.008 L395.957,289.82 L216.834,289.82 M184.792,289.82 L5.669,289.82 L5.669,260.008 M-8.669,245.669 L-38.482,245.669 L-38.482,141.69 M-38.482,109.648 L-38.482,5.669 L-8.669,5.669 M5.669,-8.669 L5.669,-38.482 L184.792,-38.482 M216.834,-38.482 L395.957,-38.482 L395.957,-8.669"/><g><g stroke-dasharray="none"><path d="M409.295,4.669L411.295,4.669L411.295,6.669L409.295,6.669z" stroke-width="0" fill="none"/></g></g></g><g width="26.041667938232422" height="15.625000953674316" transform="rotate(270,432.295,138.69) scale(1,1) translate(432.295,138.69)" opacity="0"><text width="26.041667938232422" height="15.625000953674316" transform="scale(1,1) translate(0,0)" xml:space="preserve"><tspan xml:space="preserve" text-rendering="optimizeSpeed" style="font-family: Arial, Helvetica Neue, Helvetica, sans-serif;" font-size="13.88888888888889" font-weight="normal" font-style="normal" text-decoration="none" fill="#000" opacity="1" x="0" text-anchor="start" y="12.5" textLength="26.041667938232422">3.05</tspan></text></g><g width="26.041667938232422" height="15.625000953674316" transform="rotate(360,187.792,282.008) scale(1,1) translate(187.792,282.008)" opacity="0"><text width="26.041667938232422" height="15.625000953674316" transform="scale(1,1) translate(0,0)" xml:space="preserve"><tspan xml:space="preserve" text-rendering="optimizeSpeed" style="font-family: Arial, Helvetica Neue, Helvetica, sans-serif;" font-size="13.88888888888889" font-weight="normal" font-style="normal" text-decoration="none" fill="#000" opacity="1" x="0" text-anchor="start" y="12.5" textLength="26.041667938232422">4.96</tspan></text></g><g width="26.041667938232422" height="15.625000953674316" transform="rotate(270,-46.294,138.69) scale(1,1) translate(-46.294,138.69)" opacity="0"><text width="26.041667938232422" height="15.625000953674316" transform="scale(1,1) translate(0,0)" xml:space="preserve"><tspan xml:space="preserve" text-rendering="optimizeSpeed" style="font-family: Arial, Helvetica Neue, Helvetica, sans-serif;" font-size="13.88888888888889" font-weight="normal" font-style="normal" text-decoration="none" fill="#000" opacity="1" x="0" text-anchor="start" y="12.5" textLength="26.041667938232422">3.05</tspan></text></g><g width="26.041667938232422" height="15.625000953674316" transform="rotate(360,187.792,-46.294) scale(1,1) translate(187.792,-46.294)" opacity="0"><text width="26.041667938232422" height="15.625000953674316" transform="scale(1,1) translate(0,0)" xml:space="preserve"><tspan xml:space="preserve" text-rendering="optimizeSpeed" style="font-family: Arial, Helvetica Neue, Helvetica, sans-serif;" font-size="13.88888888888889" font-weight="normal" font-style="normal" text-decoration="none" fill="#000" opacity="1" x="0" text-anchor="start" y="12.5" textLength="26.041667938232422">4.96</tspan></text></g><g width="26.041667938232422" height="15.625000953674316" transform="rotate(360,228.23,262.008) scale(1,1) translate(228.23,262.008)" opacity="0"><text width="26.041667938232422" height="15.625000953674316" transform="scale(1,1) translate(0,0)" xml:space="preserve"><tspan xml:space="preserve" text-rendering="optimizeSpeed" style="font-family: Arial, Helvetica Neue, Helvetica, sans-serif;" font-size="13.88888888888889" font-weight="normal" font-style="normal" text-decoration="none" fill="#000" opacity="1" x="0" text-anchor="start" y="12.5" textLength="26.041667938232422">3.93</tspan></text></g><g transform="scale(1,1) translate(0,0)" fill="black" opacity="0"><path d="M258.178,273.727 L258.178,265.914 L265.991,269.82 L258.178,273.727 z"/></g><g transform="scale(1,1) translate(0,0)" fill="black" opacity="0"><path d="M224.324,273.727 L224.324,265.914 L216.511,269.82 L224.324,273.727 z"/></g></g><g width="1454.53" height="636.811" transform="scale(1,1) translate(119.094,60.761)"><g transform="scale(1,1) translate(0,0)" fill="none" stroke="#000000" stroke-opacity="1"><path d="M0,0 L1454.53,0 L1454.53,636.811 L0,636.811 L0,0 z" stroke-width="11.811" stroke-dasharray="none"/></g><g fill="#9999FF" stroke="#9999FF" stroke-opacity="1" opacity="1" transform="scale(1,1) translate(0,0)"><path fill="none" stroke-width="1" stroke-dasharray="none" d="M5.906,-8.906 L5.906,-38.718 L707.599,-38.718 M746.932,-38.718 L1448.625,-38.718 L1448.625,-8.906 M1463.436,5.906 L1493.248,5.906 L1493.248,302.385 M1493.248,334.426 L1493.248,630.906 L1463.436,630.906 M1448.625,645.717 L1448.625,675.529 L746.932,675.529 M707.599,675.529 L5.906,675.529 L5.906,645.717 M-8.906,630.906 L-38.718,630.906 L-38.718,334.426 M-38.718,302.385 L-38.718,5.906 L-8.906,5.906"/><g><g stroke-dasharray="none"><path d="M4.906,-9.906L6.906,-9.906L6.906,-7.906L4.906,-7.906z" stroke-width="0" fill="none"/></g></g></g><g width="33.333335876464844" height="15.625000953674316" transform="rotate(360,710.599,-46.531) scale(1,1) translate(710.599,-46.531)" opacity="1"><text width="33.333335876464844" height="15.625000953674316" transform="scale(1,1) translate(0,0)" xml:space="preserve"><tspan xml:space="preserve" text-rendering="optimizeSpeed" style="font-family: Arial, Helvetica Neue, Helvetica, sans-serif;" font-size="13.88888888888889" font-weight="normal" font-style="normal" text-decoration="none" fill="#000" opacity="1" x="0" text-anchor="start" y="12.5" textLength="33.333335876464844">18.32</tspan></text></g><g width="26.041667938232422" height="15.625000953674316" transform="rotate(270,1485.436,331.426) scale(1,1) translate(1485.436,331.426)" opacity="1"><text width="26.041667938232422" height="15.625000953674316" transform="scale(1,1) translate(0,0)" xml:space="preserve"><tspan xml:space="preserve" text-rendering="optimizeSpeed" style="font-family: Arial, Helvetica Neue, Helvetica, sans-serif;" font-size="13.88888888888889" font-weight="normal" font-style="normal" text-decoration="none" fill="#000" opacity="1" x="0" text-anchor="start" y="12.5" textLength="26.041667938232422">7.94</tspan></text></g><g width="33.333335876464844" height="15.625000953674316" transform="rotate(360,710.599,667.717) scale(1,1) translate(710.599,667.717)" opacity="1"><text width="33.333335876464844" height="15.625000953674316" transform="scale(1,1) translate(0,0)" xml:space="preserve"><tspan xml:space="preserve" text-rendering="optimizeSpeed" style="font-family: Arial, Helvetica Neue, Helvetica, sans-serif;" font-size="13.88888888888889" font-weight="normal" font-style="normal" text-decoration="none" fill="#000" opacity="1" x="0" text-anchor="start" y="12.5" textLength="33.333335876464844">18.32</tspan></text></g><g width="26.041667938232422" height="15.625000953674316" transform="rotate(270,-46.531,331.426) scale(1,1) translate(-46.531,331.426)" opacity="1"><text width="26.041667938232422" height="15.625000953674316" transform="scale(1,1) translate(0,0)" xml:space="preserve"><tspan xml:space="preserve" text-rendering="optimizeSpeed" style="font-family: Arial, Helvetica Neue, Helvetica, sans-serif;" font-size="13.88888888888889" font-weight="normal" font-style="normal" text-decoration="none" fill="#000" opacity="1" x="0" text-anchor="start" y="12.5" textLength="26.041667938232422">7.94</tspan></text></g><g width="26.041667938232422" height="15.625000953674316" transform="rotate(270,1465.436,168.18) scale(1,1) translate(1465.436,168.18)" opacity="1"><text width="26.041667938232422" height="15.625000953674316" transform="scale(1,1) translate(0,0)" xml:space="preserve"><tspan xml:space="preserve" text-rendering="optimizeSpeed" style="font-family: Arial, Helvetica Neue, Helvetica, sans-serif;" font-size="13.88888888888889" font-weight="normal" font-style="normal" text-decoration="none" fill="#000" opacity="1" x="0" text-anchor="start" y="12.5" textLength="26.041667938232422">3.79</tspan></text></g><g transform="scale(1,1) translate(0,0)" fill="black" opacity="1"><path d="M1477.155,138.232 L1469.342,138.232 L1473.248,130.419 L1477.155,138.232 z"/></g><g transform="scale(1,1) translate(0,0)" fill="black" opacity="1"><path d="M1477.155,172.086 L1469.342,172.086 L1473.248,179.898 L1477.155,172.086 z"/></g><g width="26.041667938232422" height="15.625000953674316" transform="rotate(270,1465.436,539.27) scale(1,1) translate(1465.436,539.27)" opacity="1"><text width="26.041667938232422" height="15.625000953674316" transform="scale(1,1) translate(0,0)" xml:space="preserve"><tspan xml:space="preserve" text-rendering="optimizeSpeed" style="font-family: Arial, Helvetica Neue, Helvetica, sans-serif;" font-size="13.88888888888889" font-weight="normal" font-style="normal" text-decoration="none" fill="#000" opacity="1" x="0" text-anchor="start" y="12.5" textLength="26.041667938232422">2.66</tspan></text></g><g transform="scale(1,1) translate(0,0)" fill="black" opacity="1"><path d="M1477.155,509.322 L1469.342,509.322 L1473.248,501.509 L1477.155,509.322 z"/></g><g transform="scale(1,1) translate(0,0)" fill="black" opacity="1"><path d="M1477.155,543.176 L1469.342,543.176 L1473.248,550.989 L1477.155,543.176 z"/></g></g><g width="117.18" height="68" transform="rotate(90,1546.985,425.638) scale(1,1) translate(1488.395,391.638)"><g width="117.18" height="68"><g transform="scale(0.9312360349632175,0.9760717448664192) translate(0,0)"><g><g width="122.833" height="14.667" transform="scale(1,1) translate(0.5,0)"><g stroke="#BFBFBF" opacity="1" stroke-width="0" stroke-dasharray="none" width="122.833" height="14.667" transform="scale(1,1) translate(0,0)" fill="#FFFFFF" fill-opacity="1" stroke-opacity="1"><rect width="122.833" height="14.667"/></g></g><g width="61.333" height="54.5" transform="scale(1,1) translate(0.5,14.667)"><g transform="scale(1,1) translate(0,0)" fill="#000000" stroke="#000000" stroke-opacity="1"><path d="M0,0 L0,54.5 L0,54.5 L2.111,54.355 L4.167,54.148 L6.172,53.883 L8.128,53.563 L10.038,53.192 L11.905,52.772 L13.731,52.306 L15.517,51.795 L17.265,51.242 L18.977,50.647 L20.653,50.013 L22.295,49.34 L23.904,48.63 L25.48,47.883 L27.025,47.1 L28.539,46.283 L30.022,45.431 L31.475,44.546 L32.899,43.627 L34.294,42.676 L35.659,41.692 L36.996,40.675 L38.305,39.627 L39.585,38.547 L40.836,37.434 L42.06,36.29 L43.255,35.114 L44.421,33.906 L45.559,32.666 L46.668,31.393 L47.747,30.087 L48.798,28.748 L49.818,27.375 L50.807,25.968 L51.766,24.526 L52.693,23.048 L53.588,21.534 L54.449,19.982 L55.276,18.392 L56.068,16.762 L56.823,15.091 L57.54,13.378 L58.218,11.619 L58.854,9.815 L59.447,7.961 L59.995,6.056 L60.494,4.097 L60.941,2.079 L61.333,0 L61.333,0" fill="none" stroke-width="1" stroke-dasharray="none"/><g><g stroke-dasharray="none"><path d="M-1,-1L1,-1L1,1L-1,1z" stroke-width="0" fill="none"/></g></g></g></g><g width="61.333" height="54.5" transform="scale(1,1) translate(62,14.667)"><g transform="scale(1,1) translate(0,0)" fill="#000000" stroke="#000000" stroke-opacity="1"><path d="M61.333,0 L61.333,54.5 L61.333,54.5 L59.223,54.354 L57.168,54.146 L55.164,53.88 L53.209,53.559 L51.299,53.187 L49.433,52.767 L47.608,52.3 L45.822,51.789 L44.075,51.235 L42.363,50.64 L40.687,50.005 L39.046,49.332 L37.437,48.621 L35.861,47.874 L34.316,47.091 L32.803,46.273 L31.32,45.422 L29.867,44.536 L28.443,43.617 L27.049,42.666 L25.683,41.681 L24.346,40.665 L23.038,39.617 L21.758,38.536 L20.506,37.424 L19.283,36.28 L18.088,35.104 L16.921,33.896 L15.783,32.655 L14.674,31.383 L13.595,30.077 L12.544,28.738 L11.524,27.365 L10.534,25.958 L9.575,24.517 L8.648,23.039 L7.753,21.525 L6.891,19.974 L6.064,18.385 L5.272,16.755 L4.516,15.085 L3.798,13.371 L3.12,11.614 L2.483,9.81 L1.889,7.957 L1.341,6.053 L0.842,4.095 L0.393,2.078 L0,0 L0,0" fill="none" stroke-width="1" stroke-dasharray="none"/><g><g stroke-dasharray="none"><path d="M60.333,-1L62.333,-1L62.333,1L60.333,1z" stroke-width="0" fill="none"/></g></g></g></g></g></g></g><g fill="#9999FF" stroke="#9999FF" stroke-opacity="1" opacity="0" transform="scale(1,1) translate(0,0)"><path fill="none" stroke-width="1" stroke-dasharray="none" d="M0,0"/></g><g width="26.041667938232422" height="15.625000953674316" transform="rotate(180,71.611,-6) scale(1,1) translate(71.611,-6)" opacity="0"><text width="26.041667938232422" height="15.625000953674316" transform="scale(1,1) translate(0,0)" xml:space="preserve"><tspan xml:space="preserve" text-rendering="optimizeSpeed" style="font-family: Arial, Helvetica Neue, Helvetica, sans-serif;" font-size="13.88888888888889" font-weight="normal" font-style="normal" text-decoration="none" fill="#000" opacity="1" x="0" text-anchor="start" y="12.5" textLength="26.041667938232422">1.49</tspan></text></g><g transform="scale(1,1) translate(0,0)" fill="black" opacity="0"><path d="M41.663,-17.719 L41.663,-9.906 L33.851,-13.813 L41.663,-17.719 z"/></g><g transform="scale(1,1) translate(0,0)" fill="black" opacity="0"><path d="M75.517,-17.719 L75.517,-9.906 L83.33,-13.813 L75.517,-17.719 z"/></g><g width="26.041667938232422" height="15.625000953674316" transform="rotate(270,123.18,47.021) scale(1,1) translate(123.18,47.021)" opacity="0"><text width="26.041667938232422" height="15.625000953674316" transform="scale(1,1) translate(0,0)" xml:space="preserve"><tspan xml:space="preserve" text-rendering="optimizeSpeed" style="font-family: Arial, Helvetica Neue, Helvetica, sans-serif;" font-size="13.88888888888889" font-weight="normal" font-style="normal" text-decoration="none" fill="#000" opacity="1" x="0" text-anchor="start" y="12.5" textLength="26.041667938232422">0.86</tspan></text></g><g transform="scale(1,1) translate(0,0)" fill="black" opacity="0"><path d="M134.899,17.073 L127.086,17.073 L130.993,9.26 L134.899,17.073 z"/></g><g transform="scale(1,1) translate(0,0)" fill="black" opacity="0"><path d="M134.899,50.927 L127.086,50.927 L130.993,58.74 L134.899,50.927 z"/></g></g><g width="56" height="56" transform="scale(1,1) translate(1202.544,263.139)"><g width="56" height="56"><g transform="matrix(0.955 0 0 -0.978 0 56)"><g><g width="56.667" height="43.908" transform="scale(1,1) translate(0.5,12.833)"><g transform="scale(1,1) translate(0,0)" fill="#000000" stroke="#000000" stroke-opacity="1"><path d="M56.667,0 L56.667,0 L56.536,2.235 L56.311,4.344 L56.004,6.345 L55.627,8.25 L55.186,10.072 L54.687,11.816 L54.137,13.492 L53.538,15.102 L52.894,16.654 L52.209,18.149 L51.484,19.592 L50.721,20.984 L49.923,22.329 L49.09,23.629 L48.225,24.884 L47.328,26.097 L46.4,27.269 L45.441,28.4 L44.453,29.492 L43.437,30.546 L42.391,31.562 L41.318,32.54 L40.217,33.481 L39.088,34.385 L37.932,35.252 L36.748,36.083 L35.536,36.877 L34.296,37.633 L33.028,38.352 L31.732,39.033 L30.407,39.676 L29.053,40.279 L27.668,40.842 L26.252,41.364 L24.805,41.843 L23.324,42.278 L21.81,42.668 L20.259,43.01 L18.671,43.302 L17.044,43.541 L15.374,43.725 L13.66,43.849 L11.898,43.908 L10.083,43.898 L8.212,43.812 L6.276,43.641 L4.27,43.375 L2.182,43 L0,42.5 L0,42.5 L0,0.5" fill="none" stroke-width="1" stroke-dasharray="none"/><g><g stroke-dasharray="none"><path d="M55.667,-1L57.667,-1L57.667,1L55.667,1z" stroke-width="0" fill="none"/></g></g></g></g><g width="57" height="14" transform="scale(1,1) translate(0.667,0)"><g stroke="#BFBFBF" opacity="1" stroke-width="0" stroke-dasharray="none" width="57" height="14" transform="scale(1,1) translate(0,0)" fill="#FFFFFF" fill-opacity="1" stroke-opacity="1"><rect width="57" height="14"/></g></g></g></g></g><g fill="#9999FF" stroke="#9999FF" stroke-opacity="1" opacity="0" transform="scale(1,1) translate(0,0)"><path fill="none" stroke-width="1" stroke-dasharray="none" d="M0,0"/></g><g width="26.041667938232422" height="15.625000953674316" transform="scale(1,1) translate(14.979,-21.625)" opacity="0"><text width="26.041667938232422" height="15.625000953674316" transform="scale(1,1) translate(0,0)" xml:space="preserve"><tspan xml:space="preserve" text-rendering="optimizeSpeed" style="font-family: Arial, Helvetica Neue, Helvetica, sans-serif;" font-size="13.88888888888889" font-weight="normal" font-style="normal" text-decoration="none" fill="#000" opacity="1" x="0" text-anchor="start" y="12.5" textLength="26.041667938232422">0.71</tspan></text></g><g transform="scale(1,1) translate(0,0)" fill="black" opacity="0"><path d="M11.073,-17.719 L11.073,-9.906 L3.26,-13.813 L11.073,-17.719 z"/></g><g transform="scale(1,1) translate(0,0)" fill="black" opacity="0"><path d="M44.927,-17.719 L44.927,-9.906 L52.74,-13.813 L44.927,-17.719 z"/></g><g width="26.041667938232422" height="15.625000953674316" transform="rotate(270,62,41.021) scale(1,1) translate(62,41.021)" opacity="0"><text width="26.041667938232422" height="15.625000953674316" transform="scale(1,1) translate(0,0)" xml:space="preserve"><tspan xml:space="preserve" text-rendering="optimizeSpeed" style="font-family: Arial, Helvetica Neue, Helvetica, sans-serif;" font-size="13.88888888888889" font-weight="normal" font-style="normal" text-decoration="none" fill="#000" opacity="1" x="0" text-anchor="start" y="12.5" textLength="26.041667938232422">0.71</tspan></text></g><g transform="scale(1,1) translate(0,0)" fill="black" opacity="0"><path d="M73.719,11.073 L65.906,11.073 L69.812,3.26 L73.719,11.073 z"/></g><g transform="scale(1,1) translate(0,0)" fill="black" opacity="0"><path d="M73.719,44.927 L65.906,44.927 L69.812,52.74 L73.719,44.927 z"/></g></g></g></svg>