<?xml version="1.0" encoding="UTF-8" standalone="no" ?>
<!DOCTYPE svg PUBLIC "-//W3C//DTD SVG 1.1//EN" "http://www.w3.org/Graphics/SVG/1.1/DTD/svg11.dtd">
<svg xmlns="http://www.w3.org/2000/svg" xmlns:xlink="http://www.w3.org/1999/xlink" version="1.1" width="1104" height="708" viewBox="0 0 1104 708" xml:space="preserve">
<desc>Created with Fabric.js 2.7.0</desc>
<defs>
</defs>
<rect x="0" y="0" width="100%" height="100%" fill="white"></rect>
<g transform="matrix(1 0 0 1 48 471)"  >
<line style="stroke: rgb(0,0,0); stroke-width: 4; stroke-dasharray: none; stroke-linecap: butt; stroke-dashoffset: 0; stroke-linejoin: miter; stroke-miterlimit: 4; fill: rgb(0,0,0); fill-rule: nonzero; opacity: 1;"  x1="0" y1="177" x2="0" y2="-177" />
</g>
<g transform="matrix(1 0 0 1 552 648)"  >
<line style="stroke: rgb(0,0,0); stroke-width: 4; stroke-dasharray: none; stroke-linecap: butt; stroke-dashoffset: 0; stroke-linejoin: miter; stroke-miterlimit: 4; fill: rgb(0,0,0); fill-rule: nonzero; opacity: 1;"  x1="504" y1="0" x2="-504" y2="0" />
</g>
<g transform="matrix(1 0 0 1 1056 471)"  >
<line style="stroke: rgb(0,0,0); stroke-width: 4; stroke-dasharray: none; stroke-linecap: butt; stroke-dashoffset: 0; stroke-linejoin: miter; stroke-miterlimit: 4; fill: rgb(0,0,0); fill-rule: nonzero; opacity: 1;"  x1="0" y1="-177" x2="0" y2="177" />
</g>
<g transform="matrix(1 0 0 1 762.5 294)"  >
<line style="stroke: rgb(0,0,0); stroke-width: 4; stroke-dasharray: none; stroke-linecap: butt; stroke-dashoffset: 0; stroke-linejoin: miter; stroke-miterlimit: 4; fill: rgb(0,0,0); fill-rule: nonzero; opacity: 1;"  x1="-293.5" y1="0" x2="293.5" y2="0" />
</g>
<g transform="matrix(1 0 0 1 258.5 294)"  >
<line style="stroke: rgb(0,0,0); stroke-width: 4; stroke-dasharray: none; stroke-linecap: butt; stroke-dashoffset: 0; stroke-linejoin: miter; stroke-miterlimit: 4; fill: rgb(0,0,0); fill-rule: nonzero; opacity: 1;"  x1="-210.5" y1="0" x2="210.5" y2="0" />
</g>
<g transform="matrix(0 1 -1 0 1039.5 556)" style=""  >
	<g transform="matrix(1 0 0 1 -0.5 -16.5)"  >
<rect style="stroke: rgb(0,0,0); stroke-width: 0; stroke-dasharray: none; stroke-linecap: butt; stroke-dashoffset: 0; stroke-linejoin: miter; stroke-miterlimit: 4; fill: rgb(255,255,255); fill-rule: nonzero; opacity: 1;"  x="-32" y="-2" rx="0" ry="0" width="64" height="4" />
</g>
	<g transform="matrix(1 0 0 1 -32 -0.5)"  >
<line style="stroke: rgb(0,0,0); stroke-width: 1; stroke-dasharray: none; stroke-linecap: butt; stroke-dashoffset: 0; stroke-linejoin: miter; stroke-miterlimit: 4; fill: rgb(255,255,255); fill-rule: nonzero; opacity: 1;"  x1="0" y1="-18" x2="0" y2="18" />
</g>
	<g transform="matrix(1 0 0 1 -16 2)"  >
<path style="stroke: rgb(221,221,221); stroke-width: 1; stroke-dasharray: none; stroke-linecap: butt; stroke-dashoffset: 0; stroke-linejoin: miter; stroke-miterlimit: 4; fill: rgb(255,255,255); fill-opacity: 0; fill-rule: nonzero; opacity: 1;"  transform=" translate(-16, -20)" d="M 0 36 Q 32 36 32 4" stroke-linecap="round" />
</g>
	<g transform="matrix(1 0 0 1 32 -0.5)"  >
<line style="stroke: rgb(0,0,0); stroke-width: 1; stroke-dasharray: none; stroke-linecap: butt; stroke-dashoffset: 0; stroke-linejoin: miter; stroke-miterlimit: 4; fill: rgb(255,255,255); fill-rule: nonzero; opacity: 1;"  x1="0" y1="-18" x2="0" y2="18" />
</g>
	<g transform="matrix(1 0 0 1 16 2)"  >
<path style="stroke: rgb(221,221,221); stroke-width: 1; stroke-dasharray: none; stroke-linecap: butt; stroke-dashoffset: 0; stroke-linejoin: miter; stroke-miterlimit: 4; fill: rgb(255,255,255); fill-opacity: 0; fill-rule: nonzero; opacity: 1;"  transform=" translate(-48, -20)" d="M 32 4 Q 32 36 64 36" stroke-linecap="round" />
</g>
</g>
<g transform="matrix(1 0 0 1 48 294)"  >
<rect style="stroke: none; stroke-width: 0; stroke-dasharray: none; stroke-linecap: butt; stroke-dashoffset: 0; stroke-linejoin: miter; stroke-miterlimit: 4; fill: rgb(0,0,0); fill-rule: nonzero; opacity: 1;"  x="-2" y="-2" rx="0" ry="0" width="4" height="4" />
</g>
<g transform="matrix(1 0 0 1 469 294)"  >
<rect style="stroke: none; stroke-width: 0; stroke-dasharray: none; stroke-linecap: butt; stroke-dashoffset: 0; stroke-linejoin: miter; stroke-miterlimit: 4; fill: rgb(0,0,0); fill-rule: nonzero; opacity: 1;"  x="-2" y="-2" rx="0" ry="0" width="4" height="4" />
</g>
<g transform="matrix(1 0 0 1 1056 294)"  >
<rect style="stroke: none; stroke-width: 0; stroke-dasharray: none; stroke-linecap: butt; stroke-dashoffset: 0; stroke-linejoin: miter; stroke-miterlimit: 4; fill: rgb(0,0,0); fill-rule: nonzero; opacity: 1;"  x="-2" y="-2" rx="0" ry="0" width="4" height="4" />
</g>
<g transform="matrix(1 0 0 1 1056 648)"  >
<rect style="stroke: none; stroke-width: 0; stroke-dasharray: none; stroke-linecap: butt; stroke-dashoffset: 0; stroke-linejoin: miter; stroke-miterlimit: 4; fill: rgb(0,0,0); fill-rule: nonzero; opacity: 1;"  x="-2" y="-2" rx="0" ry="0" width="4" height="4" />
</g>
<g transform="matrix(1 0 0 1 48 648)"  >
<rect style="stroke: none; stroke-width: 0; stroke-dasharray: none; stroke-linecap: butt; stroke-dashoffset: 0; stroke-linejoin: miter; stroke-miterlimit: 4; fill: rgb(0,0,0); fill-rule: nonzero; opacity: 1;"  x="-2" y="-2" rx="0" ry="0" width="4" height="4" />
</g>
<g transform="matrix(1 0 0 1 178.98 691.28)" style=""  >
		<text xml:space="preserve" font-family="Arial" font-size="12" font-style="normal" font-weight="normal" style="stroke: none; stroke-width: 1; stroke-dasharray: none; stroke-linecap: butt; stroke-dashoffset: 0; stroke-linejoin: miter; stroke-miterlimit: 4; fill: rgb(153,153,153); fill-rule: nonzero; opacity: 1; white-space: pre;" ><tspan x="-130.48" y="3.77" >Created with RoomLayout(elicloudh@gmail.com)</tspan></text>
</g>
</svg>