<?xml version="1.0" encoding="UTF-8"?>
<svg width="582px" height="149px" viewBox="0 0 582 149" version="1.1" xmlns="http://www.w3.org/2000/svg" xmlns:xlink="http://www.w3.org/1999/xlink">
    <!-- Generator: sketchtool 52.5 (67469) - http://www.bohemiancoding.com/sketch -->
    <title>CD235A2B-8D7D-4059-840E-366F880F5AC2</title>
    <desc>Created with sketchtool.</desc>
    <g id="Page-1" stroke="#323850" stroke-width="1" fill="#323850" fill-rule="evenodd">
        <g id="01_homepage-copy-6" transform="translate(-429.000000, -117.000000)" fill="#323850">
            <g id="Group-9" transform="translate(427.000000, 113.186499)">
                <g id="wattness-1" transform="translate(-0.000000, 0.122644)">
                    <g id="Group" transform="translate(293.165362, 81.233495) rotate(1.000000) translate(-293.165362, -81.233495) translate(2.165362, 5.233495)">
                        <path d="M206.690763,99.7657911 C205.008641,104.366066 203.536784,109.070892 201.539264,113.671167 C198.700683,120.257924 195.546704,126.844681 192.287592,133.222335 C190.60547,136.672541 188.187419,139.599988 185.348838,142.213781 C179.356278,147.650469 170.420004,147.755021 164.742841,140.33185 C162.955586,137.927161 161.378597,135.208817 160.432403,132.385921 C158.960546,127.890198 158.014352,123.185372 156.857893,118.585097 C156.647628,117.748683 156.437363,116.91227 156.121965,115.134891 C155.280904,116.284959 154.755241,116.807718 154.439843,117.435028 C151.706394,122.45351 149.183211,127.576543 146.134365,132.385921 C144.241977,135.41792 141.718794,138.136264 139.090478,140.645505 C131.941459,147.545917 122.269256,146.604952 116.802359,137.718058 C114.909972,134.686058 113.438115,131.340404 112.281656,127.890198 C109.758472,120.362476 109.337942,112.62565 110.07387,104.784273 C110.914931,95.4791715 112.912451,86.3831737 116.697226,77.8099344 C119.535808,71.3277291 123.320582,65.3682823 128.682347,60.5589042 C131.520928,57.9451117 134.674907,55.8540778 138.459682,54.8085608 C143.716314,53.2402853 148.657548,54.0766989 153.073119,57.4223532 C154.124445,58.2587668 155.070639,59.1997321 156.227098,60.1406974 C157.173291,59.7224906 158.224618,59.3042838 159.275944,58.9906287 C164.006913,57.4223532 168.632749,59.4088355 170.420004,64.1136619 C171.366197,66.518351 171.786728,69.2366951 171.89186,71.9550393 C172.417524,82.7238642 172.522656,93.5972409 173.258585,104.366066 C173.679115,111.161926 174.625309,117.957787 175.571503,124.753647 C175.781768,126.321922 176.517696,127.890198 177.253625,130.085784 C178.410084,128.831163 179.356278,128.203853 179.881941,127.262888 C182.299991,123.185372 184.823175,119.107855 186.925827,114.925787 C194.810775,99.3475843 200.067407,82.9329676 203.957315,65.9955925 C205.534304,59.3042838 206.795896,52.6129751 208.16262,45.9216664 C208.478018,44.4579426 208.983518,40.6270422 209.193784,38.8496633 C207.827059,38.7451116 206.775733,38.4314565 205.619274,38.5360082 C197.839459,39.1633184 190.059644,39.999732 182.174696,40.5224905 C171.871698,41.2543524 161.673832,42.6135245 151.265701,42.2998694 C149.898977,42.2998694 148.532252,42.2998694 147.270661,42.090766 C144.642345,41.5680075 142.34959,42.3669087 141.718794,39.6485645 C141.087998,37.034772 141.718794,34.5255313 144.031712,33.0618075 C145.713834,31.9117388 147.711354,31.0753252 149.708874,30.6571184 C156.016832,29.402498 162.429923,28.1478777 168.843014,27.3114641 C181.564063,25.6386369 194.179979,24.1749131 206.901028,22.6066376 C208.16262,22.3975343 209.424212,22.0838792 210.896069,21.7702241 C211.211466,20.411052 211.526864,19.1564316 211.947395,17.9018112 C212.367925,16.4380874 212.816753,8.1964701 213.784201,4.25138616 C214.509934,1.29197153 217.884373,-0.244336876 221.35375,0.0693182191 C224.612862,0.278421616 227.864869,2.77901646 228.187372,6.13331673 C228.672428,11.1783091 228.137821,18.1109146 228.348086,19.7837418 C233.920116,19.9928452 239.28188,18.9473282 244.748777,18.5291214 C250.110542,18.1109146 255.367174,17.6927078 260.939203,17.274501 C261.464867,15.8107773 262.422163,7.9776167 263.052959,6.61844462 C264.524816,2.95913517 267.047999,0.658997809 271.253305,0.554446111 C275.45861,0.449894413 278.086926,2.64548008 279.558783,6.40934122 C279.874181,7.24575481 279.652813,14.5561569 279.968211,15.7062256 C282.701659,16.4380874 285.54024,16.0198806 288.378822,15.915329 C296.368902,15.6016739 304.358982,15.0789154 312.349063,14.6607086 C314.977379,14.5561569 317.710827,14.3470535 320.339143,14.2425018 C321.285337,14.2425018 322.23153,14.1379501 323.177724,14.3470535 C327.488162,15.3925705 329.360387,17.9393236 326.101275,20.8667712 C324.629418,22.2259433 322.631898,23.2714603 320.634378,23.7942188 C316.429073,24.8397357 312.013502,25.5715976 307.703064,26.3034595 C298.451392,27.6626316 289.19972,28.917252 279.63265,30.1718724 C279.317252,31.4264927 278.391221,35.0482898 278.286088,36.3029101 C277.970691,46.1307698 277.234762,56.0631811 277.55016,65.8910408 C277.865558,78.7508997 278.706619,91.7153103 281.860598,104.261514 C282.596527,107.188962 283.227322,110.116409 284.909445,112.521098 C286.591567,113.043857 287.222363,111.99834 287.958291,111.266478 C290.902005,107.920824 292.794392,104.052411 294.371382,99.8703428 C297.10483,92.7608273 298.68182,85.3376567 300.153677,77.8099344 C302.046064,67.9820748 303.938452,58.0496634 305.935972,48.2218038 C306.25137,46.75808 306.6719,45.2943562 307.197563,43.8306324 C307.618094,42.576012 308.143757,41.3213917 308.774553,40.171323 C312.769593,33.6891177 320.864806,33.8982211 324.439316,40.6940815 C325.38551,42.4714604 326.016305,44.5624943 326.331703,46.6535283 C326.962499,50.9401479 327.488162,55.3313193 327.80356,59.6179389 C328.224091,65.0546272 328.434356,70.5958672 328.749754,76.1371072 C328.854887,76.9735208 328.960019,77.8099344 329.275417,80.0055201 C330.221611,77.3917276 330.747274,76.0325555 331.272937,74.6733835 C333.480723,68.8184884 335.583375,62.8590415 338.106559,57.2132498 C340.209211,52.29932 343.152925,47.803597 346.9377,43.9351841 C348.619822,42.1578053 350.51221,40.4849781 352.614862,39.2303577 C357.976627,35.989255 363.548657,37.3484271 367.228299,42.3669087 C369.225819,45.1898045 370.487411,48.4309072 371.013074,51.7765615 C371.749002,55.8540778 372.379798,60.0361457 372.484931,64.2182136 C372.905461,76.555314 373.010594,88.8924145 373.325992,101.229515 C373.431124,105.934341 373.64139,110.743719 374.692716,115.343994 C374.797849,115.657649 375.008114,116.075856 375.218379,116.807718 C375.954308,116.494063 376.900501,116.389511 377.531297,115.866753 C380.790409,112.834753 383.313592,109.175444 384.890582,105.097928 C387.308632,98.9293775 389.516418,92.6562756 391.724203,86.3831737 C392.985795,82.6193125 393.931988,78.7508997 395.19358,74.8824869 C396.350039,71.3277291 397.821896,67.7729714 399.18862,64.2182136 C399.819416,62.4408348 400.450212,60.6634559 401.081008,58.886077 C402.868263,53.4493887 404.970915,48.1172521 408.019762,43.3078739 C410.33268,39.7531162 412.960996,36.6165652 416.535505,34.2118762 C418.953556,32.539049 421.687004,31.7026354 424.630718,31.5980837 C429.151422,31.493532 432.936197,33.0618075 435.564512,36.7211169 C436.826104,38.6030475 438.087696,40.5895298 438.718492,42.7851154 C441.662205,52.9266302 442.398134,63.2772483 440.190348,73.7324182 C439.244155,78.0190378 437.351767,81.9920024 434.723451,85.5467601 C429.361687,92.6562756 423.474259,94.2245511 415.168781,91.0880001 C414.537985,90.774345 413.802057,90.6697933 412.645598,90.2515865 C412.225067,98.9293775 412.435332,107.188962 415.589312,115.134891 C416.640638,117.748683 418.112495,120.257924 420.740811,121.930751 C424.105055,122.767165 426.628238,120.989786 429.046289,119.212407 C432.305401,116.703166 434.933717,113.671167 436.720971,110.011858 C438.928757,105.620686 440.926277,101.020411 442.503266,96.4201367 C445.657246,87.2195873 447.234235,77.7053827 449.336888,68.1911782 C450.808745,61.7089729 452.280602,55.2267676 453.962724,48.849114 C454.698652,46.1307698 455.539713,43.4124256 456.696172,40.7986332 C457.642366,38.7075992 458.798825,36.7211169 460.270682,34.9437381 C464.370855,30.1343599 470.678813,29.6116014 475.620047,33.584566 C477.407302,35.0482898 478.879159,36.8256686 480.14075,38.7075992 C481.928005,41.4259434 483.504995,44.2488392 484.871719,47.1762868 C490.969412,60.3498008 496.120911,73.7324182 498.85436,88.0560009 C498.959492,88.5787594 499.169757,89.1015179 499.380023,89.6242763 C499.485155,89.728828 499.695421,89.8333797 500.010819,90.0424831 C500.431349,89.9379314 501.062145,89.9379314 501.377543,89.6242763 C509.157358,83.6648295 516.41151,77.2871759 522.40407,69.5503502 C527.765835,62.5453864 531.866007,54.8085608 534.914854,46.6535283 C536.176445,43.4124256 536.807241,40.171323 536.807241,36.6165652 C536.807241,34.630083 537.017507,32.4344973 537.753435,30.5525667 C538.804761,27.6251192 541.222812,26.0568437 544.376791,26.1613954 C547.635903,26.1613954 549.948821,27.7296709 551.000147,30.6571184 C551.736076,32.7481524 551.736076,35.0482898 552.051474,37.3484271 C552.261739,39.2303577 552.051474,41.1122883 552.366871,42.9942188 C554.259259,52.5084234 556.361912,61.9180763 558.359432,71.4322808 C558.464564,71.9550393 558.779962,72.3732461 559.200493,73.2096597 C560.146687,72.6869012 560.987748,72.3732461 561.618543,71.7459359 C564.562257,69.3412468 567.505971,66.9365578 570.449685,64.5318687 C571.290746,63.8000068 572.131807,62.9635932 573.078001,62.3362831 C575.390919,60.7680076 578.2295,61.0816627 579.911622,62.8590415 C581.488612,64.5318687 581.80401,66.9365578 580.332153,69.1321435 C579.491092,70.3867638 578.544898,71.6413842 577.493572,72.6869012 C573.813929,76.3462106 570.134287,79.7964167 566.349512,83.3511744 C564.877655,84.8148982 563.300666,86.1740703 561.513411,87.8468975 C561.723676,90.3561382 561.933941,92.9699307 562.249339,95.5837232 C563.0904,102.484135 562.354472,109.175444 560.462084,115.866753 C559.515891,119.212407 557.938901,122.244406 555.625983,124.858199 C550.684749,130.50399 542.799802,132.385921 535.230252,129.667577 C529.027426,127.471991 523.665662,122.244406 523.139999,113.148408 C522.929733,109.070892 524.40159,105.202479 526.924773,102.065928 C529.027426,99.452136 531.340344,96.8383435 533.863527,94.4336545 C537.122639,91.1925518 540.592016,88.2651043 544.166526,85.0240016 C543.430597,79.0645548 542.379271,73.105108 540.802281,66.7274544 C536.807241,72.1641427 533.442997,77.3917276 529.447957,82.0965541 C525.242651,87.0104839 520.616815,91.5062069 515.780714,95.8973782 C511.154878,100.183998 506.108511,103.947859 500.957012,108.33903 C500.641614,110.743719 500.326216,113.566615 499.905686,116.389511 C499.169757,121.930751 497.803033,127.158336 494.859319,131.967714 C492.231003,136.358886 488.656494,139.70454 483.820393,141.481919 C478.563761,143.468401 473.622527,142.631987 469.206956,139.286333 C465.211916,136.254334 463.004131,132.176818 462.268202,127.262888 C461.742539,123.917233 462.793865,120.780682 464.58112,118.062338 C466.15811,115.657649 467.945364,113.462064 470.15315,111.580133 C473.096864,108.966341 476.461108,106.666203 479.72022,104.261514 C481.192077,103.111445 482.874199,102.17048 484.766586,100.91586 C482.243403,84.0830363 477.302169,68.0866265 469.942885,52.6129751 C468.050497,53.2402853 468.050497,54.7040091 467.735099,55.8540778 C465.106783,67.1456612 462.373335,78.4372446 459.745019,89.6242763 C458.168029,96.5246884 456.485907,103.320549 453.857591,109.802754 C450.913877,117.330476 446.813705,124.126337 440.821144,129.667577 C436.615839,133.640541 431.674605,136.463437 425.997443,138.031713 C419.163821,139.809092 413.171261,138.345368 407.704364,134.058748 C402.76313,130.190335 399.609151,125.067302 397.611631,119.107855 C396.77057,116.598615 396.034641,114.089374 395.088447,110.952823 C394.037121,112.62565 393.406325,113.984822 392.565264,115.134891 C390.567744,118.16689 388.675357,121.198889 386.362439,124.021785 C384.259786,126.740129 381.421205,128.726612 378.162093,129.981232 C372.695196,132.072266 367.228299,130.713094 363.864054,125.903716 C362.287065,123.603578 360.920341,120.989786 360.184412,118.271442 C359.027953,114.507581 358.186892,110.534616 357.871494,106.561651 C357.345831,100.183998 356.9253,93.7017926 357.240698,87.2195873 C357.661229,77.3917276 357.661229,67.4593163 357.766362,57.6314566 C357.766362,55.7495261 357.556096,53.8675955 357.345831,51.3583547 C356.189372,52.0902166 355.243178,52.29932 354.92778,52.9266302 C352.719995,56.6904913 350.301944,60.3498008 348.51469,64.3227653 C344.519649,73.2096597 342.311864,82.6193125 340.524609,92.2380688 C338.842487,101.752273 337.475763,111.37103 335.898773,120.885234 C335.478243,123.08082 335.162845,125.380957 334.321784,127.471991 C333.060192,130.608542 330.537009,132.699576 326.962499,133.117783 C323.177724,133.53599 320.23401,132.072266 318.131358,128.935715 C315.713307,125.380957 314.661981,121.303441 314.136317,117.121373 C313.295256,109.175444 312.664461,101.229515 312.033665,93.2835858 C311.928532,91.819862 311.823399,90.2515865 311.192604,88.6833111 C310.66694,90.3561382 310.141277,92.0289654 309.615614,93.7017926 C307.723227,99.0339292 306.041104,104.575169 303.728186,109.698202 C302.25633,113.148408 299.943412,116.284959 297.735626,119.316959 C296.263769,121.198889 294.266249,122.976268 292.268729,124.230889 C286.591567,127.890198 279.757945,127.053784 275.026977,122.244406 C272.398661,119.630614 270.716539,116.389511 269.349814,113.043857 C266.721498,106.666203 265.144509,100.079446 263.672652,93.3881375 C263.462387,92.1335171 263.041856,90.8788967 262.305928,88.5787594 C261.675132,90.3561382 261.359734,91.0880001 261.044336,91.9244137 C257.99549,101.334067 254.631245,110.639168 249.900277,119.316959 C247.587359,123.499027 244.959043,127.471991 242.225594,131.340404 C240.228074,134.1633 237.494626,136.254334 234.340646,137.822609 C227.507025,141.272815 221.934995,138.763575 218.15022,134.895162 C215.837302,132.490473 214.15518,129.667577 213.208987,126.635578 C211.842262,122.45351 210.685803,118.271442 209.73961,113.984822 C209.003681,110.430064 208.793416,106.875307 208.267753,103.320549 C208.057487,102.065928 207.742089,100.811308 207.426692,99.5566877 C207.216426,99.8703428 207.006161,99.7657911 206.690763,99.7657911 Z M259.682314,33.2821941 C257.789926,33.2821941 256.31807,33.1776424 254.846213,33.2821941 C246.751,34.2231593 238.550654,35.2686763 230.455441,36.3141933 C229.404115,36.418745 228.352788,36.7324001 227.301462,37.0460552 C227.196329,38.1961239 227.086495,41.0077366 227.086495,41.7395985 C226.560831,54.5994574 226.035168,67.563868 225.614638,80.4237269 C225.29924,91.6107586 225.404372,102.79779 226.876229,113.984822 C227.29676,117.53958 227.507025,121.094338 229.71481,124.33544 C232.658524,122.662613 234.235514,120.048821 235.812503,117.435028 C240.228074,110.534616 243.487186,103.006894 246.325767,95.3746198 C252.949123,77.0780725 256.733898,58.1542151 259.782744,39.0212543 C259.99301,37.8711856 259.682314,34.6413661 259.682314,33.2821941 Z M145.608701,72.7914529 C141.718794,75.7189005 139.721274,79.1691065 137.934019,82.7238642 C132.467122,93.910896 129.313143,105.82979 128.682347,118.271442 C128.577214,121.198889 129.313143,124.230889 129.838806,127.262888 C129.943939,127.681095 130.574734,128.099301 130.995265,128.517508 C133.413316,126.949233 134.78004,124.649095 136.146764,122.45351 C140.7726,115.657649 143.611181,108.025375 146.449762,100.28855 C148.131885,95.7928265 147.080558,90.8788967 148.76268,86.3831737 C149.183211,85.233105 149.078078,83.7693812 148.867813,82.4102092 C148.552415,80.0055201 148.026752,77.600831 147.395956,75.196142 C147.185691,74.5688318 146.34463,73.9415216 145.608701,72.7914529 Z M422.422933,78.3326929 C426.943636,73.6278665 427.994963,67.9820748 428.415493,62.3362831 C428.836024,56.5859396 428.625758,50.7310445 425.787177,45.3989079 C423.474259,45.712563 422.633198,47.2808385 421.687004,48.6400106 C418.32276,54.1812506 416.535505,60.3498008 415.589312,66.7274544 C417.481699,70.5958672 418.427893,74.9870386 422.422933,78.3326929 Z M478.14323,130.50399 C481.192077,129.144818 481.612607,129.040267 482.453668,127.262888 C483.71526,124.858199 484.661454,122.244406 484.451188,119.003304 C481.297209,120.676131 478.984291,122.558061 476.881639,124.753647 C474.778986,126.949233 475.199516,128.412956 478.14323,130.50399 Z M545.638383,104.261514 C540.697149,109.175444 539.96122,110.639168 540.381751,115.448546 C541.222812,115.866753 542.169006,116.284959 543.220332,116.91227 C546.164046,112.939305 546.269179,108.861789 545.638383,104.261514 Z" id="Shape" fill-rule="nonzero"/>
                        <path d="M99.7708719,57.2132498 C103.135116,57.84056 104.396708,59.931594 104.291575,62.9635932 C104.186443,65.5773857 104.08131,68.2957299 103.765912,70.9095223 C102.714586,81.4692439 101.768392,92.0289654 100.611933,102.693239 C99.6657393,111.161926 98.8246782,119.735165 96.1963623,127.890198 C95.2501685,130.817646 94.1988422,133.640541 92.7269853,136.358886 C91.6756589,138.345368 90.3089346,140.227298 88.6268125,141.795574 C84.7369049,145.454883 79.9008036,145.87309 75.4852329,143.050194 C73.2774475,141.58647 71.1747948,139.70454 69.8080705,137.613506 C67.2848873,133.849645 64.8668366,129.87668 63.0795818,125.799164 C60.135868,119.212407 57.6126847,112.416547 54.9843688,105.725238 C54.4587056,104.366066 53.9330425,102.902342 53.4073793,101.124963 C52.040655,102.065928 51.8303897,103.215997 51.5149918,104.366066 C49.2020738,111.580133 47.2045537,118.898752 44.4711052,126.008267 C42.4735851,131.340404 39.8452692,136.463437 37.3220859,141.481919 C36.2707595,143.677504 34.69377,145.663987 33.0116478,147.441366 C27.6498834,153.087157 20.3957315,153.191709 14.6134365,147.964124 C12.1953858,145.768538 10.3029984,143.050194 9.04140673,140.122747 C7.25415191,135.731575 5.57202973,131.235852 4.41557073,126.740129 C0.525663182,111.266478 -0.315397909,95.5837232 2.20778536,79.7964167 C2.73344855,76.4507623 3.67964227,73.105108 4.73096864,69.8640053 C5.57202973,67.3547646 7.14901927,65.1591789 9.46193727,63.5909034 C14.8237017,60.0361457 21.4470578,62.3362831 23.2343126,68.4002816 C23.7599758,70.3867638 23.8651085,72.4777978 23.8651085,74.5688318 C23.9702411,84.3966914 23.8651085,94.3291028 24.0753737,104.156962 C24.1805064,110.430064 24.8113022,116.703166 25.3369654,122.871716 C25.442098,124.544544 25.9677612,126.217371 26.3882917,128.62206 C27.3344855,127.262888 28.0704139,126.531026 28.4909445,125.590061 C31.4346583,119.630614 33.537311,113.357512 35.3245658,106.875307 C37.2169533,99.9748945 39.1093407,92.9699307 41.1068608,86.0695186 C41.8427893,83.5602778 42.788983,81.0510371 43.945442,78.646348 C47.8353495,71.014074 57.2972868,70.4913155 62.1333881,77.4962793 C63.8155103,80.0055201 65.1822345,82.8284159 66.1284283,85.6513118 C67.9156831,90.8788967 69.1772747,96.2110333 70.7542643,101.438618 C72.6466517,107.607168 74.4339065,113.775719 76.4314266,119.944269 C77.3776204,122.767165 78.8494773,125.485509 80.3213342,128.935715 C81.2675279,127.367439 81.8983237,126.531026 82.3188543,125.485509 C85.1574355,117.53958 86.5241597,109.279996 87.890884,101.124963 C89.7832715,89.728828 91.6756589,78.3326929 93.673179,66.8320061 C93.9885769,64.9500755 94.4091075,63.0681449 94.9347706,61.2907661 C95.6706991,59.1997321 97.0374234,57.7360083 99.7708719,57.2132498 Z" id="Path"/>
                    </g>
                </g>
            </g>
        </g>
    </g>
</svg>
